PathFileType	4	(X/Y/Z)	E:\Qualisys_Data\Carbon_Farble_Plate\Data\Amateur_Runner\S14\T2\S14T2V12_c3d.trc
DataRate	CameraRate	NumFrames	NumMarkers	Units	OrigDataRate	OrigDataStartFrame	OrigNumFrames
200.000000	200.000000	4	39	mm	200.000000	203	325
Frame#	Time	LSHO			RSHO			LICST			RICST			LASIS			LHEEL			RASIS			LTROC			RTROC			SACR			LTH1			LSK4			LTH2			LTH3			RHM5			LSK2			LTH4			RTH1			LTOE			RTH2			RTH3			RTH4			LLEP			RLEP			LSK1			LSK3			RSK1			LHM5			RSK2			LFT1			RSK3			RSK4			LLME			RLME			RTOE			RHEEL			RFT1			RFT2			LFT2			
		X1	Y1	Z1	X2	Y2	Z2	X3	Y3	Z3	X4	Y4	Z4	X5	Y5	Z5	X6	Y6	Z6	X7	Y7	Z7	X8	Y8	Z8	X9	Y9	Z9	X10	Y10	Z10	X11	Y11	Z11	X12	Y12	Z12	X13	Y13	Z13	X14	Y14	Z14	X15	Y15	Z15	X16	Y16	Z16	X17	Y17	Z17	X18	Y18	Z18	X19	Y19	Z19	X20	Y20	Z20	X21	Y21	Z21	X22	Y22	Z22	X23	Y23	Z23	X24	Y24	Z24	X25	Y25	Z25	X26	Y26	Z26	X27	Y27	Z27	X28	Y28	Z28	X29	Y29	Z29	X30	Y30	Z30	X31	Y31	Z31	X32	Y32	Z32	X33	Y33	Z33	X34	Y34	Z34	X35	Y35	Z35	X36	Y36	Z36	X37	Y37	Z37	X38	Y38	Z38	X39	Y39	Z39	

204	1.015	555.8106079101562	1402.837768554688	-503.0832214355469	613.6411743164062	1397.076416015625	-203.0941009521484	515.80126953125	953.05859375	-479.5724182128906	562.0709838867188	963.848388671875	-202.3210754394531	562.1618041992188	904.7384643554688	-457.3331909179688	290.6701965332031	325.6343994140625	-377.1928100585938	587.8076171875	922.5902099609376	-222.5914459228516	438.1684875488281	828.06640625	-488.3655090332031	452.9066467285156	844.3736572265625	-161.4616088867188	395.9829406738281	940.9063110351562	-362.4879455566406	603.4083251953125	645.5193481445312	-515.7846069335938	463.7359008789062	417.7464294433594	-470.77587890625	540.8032836914062	610.1506958007812	-483.4893493652344	659.0819091796875	562.783203125	-504.2757568359375	392.9274291992188	59.60830688476562	-199.2257080078125	544.4203491210938	470.217529296875	-495.0498962402344	592.0311889648438	527.5181274414062	-476.8691711425781	584.4542846679688	624.1570434570312	-177.365966796875	425.5192565917969	105.47998046875	-404.9674682617188	507.6111755371094	627.0859375	-166.4882507324219	581.4789428710938	528.3106689453125	-211.2107849121094	499.8905029296875	528.6553955078125	-192.0208587646484	636.6941528320312	495.0332946777344	-498.9656066894531	517.5079345703125	455.9439086914062	-203.8296813964844	591.2932739257812	402.9559936523438	-490.1008911132812	507.8580627441406	349.3117370605469	-467.2746887207031	488.1493225097656	336.1822509765625	-205.2987365722656	368.4523620605469	149.7473602294922	-464.6747741699219	414.1863708496094	377.4389038085938	-191.9594116210938	277.3566284179688	300.0766906738281	-353.3157958984375	428.6290283203125	251.9861145019531	-220.2631225585938	364.9278869628906	295.9375915527344	-206.1090393066406	344.6907348632812	292.3420104980469	-440.7874450683594	294.5275573730469	137.4835968017578	-230.1612548828125	467.3561096191406	50.45202255249023	-265.6048278808594	222.8867034912109	124.8029708862305	-283.2108764648438	229.5794525146484	90.7484130859375	-309.4591979980469	216.4473419189453	100.9992828369141	-255.2692413330078	265.8841247558594	305.0983581542969	-407.5631408691406
205	1.02	568.471435546875	1407.493041992188	-503.78173828125	630.8995971679688	1401.980590820312	-205.2492218017578	531.3876953125	957.9597778320312	-479.8188781738281	578.4403076171875	968.0675048828124	-203.3822174072266	577.612060546875	909.5360717773438	-457.9151611328125	315.6497192382812	316.1944580078125	-377.9070434570312	604.042236328125	926.0986328125	-223.6766967773438	455.284423828125	833.6180419921875	-490.7449035644531	468.5850830078125	848.646240234375	-161.7766571044922	411.8370971679688	945.9859008789062	-363.2656555175781	622.0772705078125	651.3215942382812	-515.45458984375	485.6112060546875	416.0328369140625	-470.4899291992188	559.1452026367188	615.0934448242188	-484.653564453125	678.6134643554688	569.276123046875	-503.4340209960938	393.4652709960938	59.05978012084961	-199.7333831787109	563.9929809570312	471.646728515625	-494.4547119140625	611.056884765625	533.197998046875	-476.9141540527344	594.8536987304688	626.6719970703125	-178.2767639160156	460.0974426269531	102.5716323852539	-405.7223510742188	518.2376708984375	631.2584228515625	-167.0596313476562	589.706787109375	530.8129272460938	-211.8509826660156	508.1974792480469	532.7814331054688	-192.7864685058594	656.3240356445312	500.2633666992188	-498.2024841308594	524.4005126953125	459.8477172851562	-203.2822265625	613.5362548828125	406.3304138183594	-489.5651245117188	531.95947265625	349.1462097167969	-466.8218994140625	493.1879577636719	340.4161071777344	-204.4286041259766	401.3048095703125	144.4548034667969	-465.3778686523438	419.6530151367188	382.2388305664062	-192.1933135986328	301.7628173828125	291.59228515625	-353.6956176757812	433.2659301757812	256.4014892578125	-219.5944519042969	369.8686828613281	301.3648681640625	-205.5528717041016	371.0888977050781	285.6098327636719	-441.1100769042969	297.9345397949219	142.3077087402344	-229.885498046875	468.1994323730469	50.17704772949219	-265.2046203613281	226.5568084716797	131.1680908203125	-282.3046264648438	232.5572509765625	97.25257873535156	-309.2265625	219.9175720214844	107.3381881713867	-254.5588531494141	291.82373046875	295.1492614746094	-408.5047302246094
206	1.025	581.325927734375	1412.321899414062	-504.5140075683594	647.6353149414062	1406.773559570312	-207.1016845703125	547.6903076171875	963.2034301757812	-479.5963134765625	595.2703857421875	972.0392456054688	-204.5644073486328	593.0925903320312	914.5047607421876	-458.5542602539062	341.2377014160156	307.0054626464844	-378.34716796875	620.16552734375	929.7137451171876	-224.8862609863281	471.792724609375	839.03564453125	-492.4140930175781	484.1678771972656	852.4539794921875	-161.5055999755859	428.1878356933594	950.698974609375	-363.5773620605469	640.8243408203125	657.3416748046875	-515.4044799804688	507.0200500488281	413.7997436523438	-470.6536865234375	577.4901123046875	620.837890625	-485.8809204101562	697.3381958007812	575.4010620117188	-502.5118408203125	394.6973266601562	59.73653793334961	-199.1073913574219	583.5952758789062	472.6887512207031	-493.6152648925781	630.1519775390625	539.0342407226562	-477.2096862792969	605.763671875	628.9453125	-179.5754547119141	494.3837585449219	99.73203277587892	-406.6953125	529.3656005859375	635.4754028320312	-167.4341125488281	598.501953125	533.4030151367188	-212.3746948242188	517.2796630859375	537.4132080078125	-192.4699096679688	675.7682495117188	505.3032531738281	-497.4293212890625	531.857421875	463.5809631347656	-203.2601776123047	636.0223388671875	409.1217346191406	-489.7888793945312	556.1934814453125	349.1221618652344	-467.2967224121094	498.3883666992188	344.3317565917969	-203.7066955566406	433.5881958007812	138.7480316162109	-466.0964660644531	425.7283935546875	387.1990051269531	-192.1609954833984	327.9437561035156	281.7168273925781	-354.3412780761719	437.8238830566406	260.7976684570312	-218.5585784912109	374.9593200683594	306.5135803222656	-205.6156921386719	397.6460266113281	279.17431640625	-442.1716613769531	302.1187133789062	147.4927062988281	-229.0619354248047	469.1976623535156	49.75096130371094	-264.8422546386719	230.9493865966797	137.2715454101562	-281.8906555175781	235.9775848388672	104.2147750854492	-310.2035217285156	223.5276947021484	113.5491638183594	-254.1385498046875	317.8706359863281	284.8700866699219	-408.9283447265625
207	1.03	594.2032470703125	1417.1015625	-505.1220092773438	664.2379760742188	1411.538452148438	-209.2673797607422	563.4361572265625	968.3119506835938	-480.0497131347656	612.2567138671875	976.027587890625	-206.1675415039062	609.0286254882812	919.6129760742188	-459.2255249023438	366.9166870117188	297.8033142089844	-379.0877075195312	636.5521240234375	933.5350341796876	-226.0462799072266	488.4283447265625	844.5575561523438	-495.2031860351562	499.7023315429688	856.826904296875	-162.0920257568359	443.9769287109375	955.8450317382812	-364.1122741699219	658.9987182617188	663.1201171875	-515.216064453125	528.694580078125	411.700439453125	-470.7090148925781	595.9783935546875	626.2149047851562	-487.3975524902344	716.0534057617188	581.5723266601562	-501.5146484375	396.4729309082031	60.53906631469727	-198.6131286621094	602.943115234375	473.7926330566406	-493.32763671875	648.3018798828125	544.6771850585938	-477.6098327636719	616.5203247070312	631.8057250976562	-180.8446960449219	528.8451538085938	97.4032745361328	-407.8232727050781	540.354248046875	639.8540649414062	-167.7940063476562	607.551025390625	536.3645629882812	-212.8933258056641	526.0198364257812	541.579833984375	-191.9830627441406	694.9283447265625	510.0270080566406	-496.8009643554688	539.4395751953125	467.8420715332031	-203.1598358154297	657.382080078125	412.2377319335938	-489.1308898925781	580.0819091796875	348.816650390625	-467.3069763183594	504.8055419921875	349.0286254882812	-203.3265228271484	466.4721984863281	134.0714416503906	-467.2537536621094	431.760009765625	392.4939575195312	-192.14892578125	354.8058166503906	271.7067260742188	-355.1782531738281	443.3150939941406	265.5370788574219	-217.6899719238281	380.3901672363281	311.8819885253906	-205.0127716064453	424.5292358398438	272.431396484375	-442.2076110839844	306.9352111816406	152.9852142333984	-228.3914794921875	470.4344482421875	49.72409439086914	-264.4166259765625	235.2265777587891	143.7630920410156	-281.5669250488281	239.8556671142578	110.6763687133789	-309.4415283203125	227.7377624511719	120.1432266235352	-253.6787719726562	344.5240173339844	274.6729431152344	-409.42138671875
